<?xml version="1.0" standalone="no"?>
<!DOCTYPE svg PUBLIC "-//W3C//DTD SVG 20010904//EN"
 "http://www.w3.org/TR/2001/REC-SVG-20010904/DTD/svg10.dtd">
<svg version="1.0" xmlns="http://www.w3.org/2000/svg"
 width="348.000000pt" height="363.000000pt" viewBox="0 0 348.000000 363.000000"
 preserveAspectRatio="xMidYMid meet">

<g transform="translate(0.000000,363.000000) scale(0.100000,-0.100000)"
fill="#000000" stroke="none">
<path d="M1940 3540 l0 -80 -85 0 c-74 0 -85 -2 -86 -17 -1 -10 -3 -241 -4
-513 -2 -272 -3 -516 -4 -542 l-1 -48 -90 0 -89 0 -3 -77 -3 -78 -122 -3 -123
-3 0 -89 0 -90 -135 0 -135 0 0 -80 0 -80 -100 0 -100 0 0 -85 0 -85 -166 0
c-95 0 -174 4 -185 10 -16 9 -19 22 -19 85 l0 75 -84 0 c-98 0 -96 -2 -96 101
l0 69 -75 0 -75 0 0 170 0 170 -75 0 -75 0 0 -485 0 -485 95 0 95 0 0 -90 0
-90 80 0 80 0 0 -80 0 -80 90 0 90 0 0 -90 0 -90 90 0 90 0 0 -85 0 -85 70 0
70 0 0 -335 0 -335 170 0 170 0 0 75 0 75 -85 0 -85 0 0 80 0 80 85 0 85 0 0
90 0 89 78 3 77 3 3 88 3 88 107 -3 107 -3 1 -85 2 -85 86 -3 86 -3 0 -244 0
-245 160 0 160 0 0 70 0 70 -80 0 -80 0 0 340 0 339 73 3 72 3 3 88 3 87 89 0
90 0 0 124 c0 143 -6 136 106 136 l74 0 0 285 0 285 100 0 100 0 0 -80 0 -80
90 0 90 0 0 175 0 175 -175 0 -175 0 0 170 0 170 348 2 347 3 3 73 3 72 -266
0 -266 0 3 88 3 87 422 0 423 0 0 378 0 377 -90 0 -90 0 0 80 0 80 -675 0
-675 0 0 -80z m360 -245 l0 -95 -117 0 -118 0 2 92 c1 51 2 94 3 96 0 1 52 2
115 2 l115 0 0 -95z"/>
</g>
</svg>
